 http://imageshack.us/m/146/7330/fastfive.png

Country.......: USA
Genre.........: Action, Crime, Drama, Thriller
Date release..: 15.04.2011 [World]
Director......: Justin Lin
Writers.......: Chris Morgan, Gary Scott Thompson
Duration......: 117 min.
More..........: http://www.imdb.com/title/tt1596343
Trailer.......: http://www.imdb.com/video/imdb/vi1723702553
Trailer.......:

Pilot :
Dominic and his crew find themselves on the wrong side of the law once again as they try to switch lanes between a ruthless drug lord and a relentless federal agent. 

Cats :
Vin Diesel   	 ...  	Dominic Toretto
Paul Walker 	... 	Brian O Conner
Jordana Brewster 	... 	Mia Toretto
Tyrese Gibson 	... 	Roman Pearce
Ludacris 	... 	Tej Parker (as Chris Ludacris Bridges)
Matt Schulze 	... 	Vince
Sung Kang 	... 	Han Lue
Gal Gadot 	... 	Gisele Harabo
Tego Calderon 	... 	Tego Leo
Don Omar 	... 	Rico Santos
Joaquim de Almeida 	... 	Hernan Reyes
Dwayne Johnson 	... 	Luke Hobbs
Elsa Pataky 	... 	Elena Neves
Michael Irby 	... 	Zizi
Fernando Chien 	... 	Wilkes 

Data Technical :
!!! SAMPLE !!!
Audio.....: English
Subtitles.: None
Format                           : AVI
Format/Info                      : Audio Video Interleave
File size                        : 1.76 GiB
Duration                         : 1h 56mn
Overall bit rate                 : 2 167 Kbps
Writing application              : Nandub v1.0rc2
Writing library                  : Nandub build 1853/release
Video
ID                               : 0
Format                           : MPEG-4 Visual
Format profile                   : Advanced Simple@L5
Format settings, BVOP            : Yes
Format settings, QPel            : Yes
Format settings, GMC             : No warppoints
Format settings, Matrix          : Default (H.263)
Muxing mode                      : Packed bitstream
Codec ID                         : XVID
Codec ID/Hint                    : XviD
Duration                         : 1h 56mn
Bit rate                         : 1 901 Kbps
Width                            : 720 pixels
Height                           : 304 pixels
Display aspect ratio             : 2.35:1
Frame rate                       : 25.000 fps
Color space                      : YUV
Chroma subsampling               : 4:2:0
Bit depth                        : 8 bits
Scan type                        : Progressive
Bits/(Pixel*Frame)               : 0.347
Stream size                      : 1.55 GiB (88%)
Writing library                  : XviD 1.2.1 (UTC 2008-12-04)
Audio
ID                               : 1
Format                           : AC-3
Format/Info                      : Audio Coding 3
Mode extension                   : CM (complete main)
Codec ID                         : 2000
Duration                         : 1h 56mn
Bit rate mode                    : Constant
Bit rate                         : 256 Kbps
Channel(s)                       : 2 channels
Channel positions                : Front: L R
Sampling rate                    : 48.0 KHz
Bit depth                        : 16 bits
Stream size                      : 213 MiB (12%)
Alignment                        : Split accross interleaves
Interleave, duration             : 40 ms (1.00 video frame)
Interleave, preload duration     : 500 ms

Screen : 
http://imageshack.us/m/718/7633/fastfive2011s1.jpg 
http://imageshack.us/m/850/8995/fastfive2011s2.jpg 
http://imageshack.us/m/862/8717/fastfive2011s3.jpg 
http://imageshack.us/m/135/1455/fastfive2011s4.jpg 
http://imageshack.us/m/221/745/fastfive2011s5.jpg